<svg xmlns="http://www.w3.org/2000/svg" xmlns:xlink="http://www.w3.org/1999/xlink" width="325" zoomAndPan="magnify" viewBox="0 0 243.75 242.999999" height="324" preserveAspectRatio="xMidYMid meet" version="1.0"><defs><g/><clipPath id="f4888f0e13"><path d="M 0 0.125 L 243.5 0.125 L 243.5 242.195312 L 0 242.195312 Z M 0 0.125 " clip-rule="nonzero"/></clipPath><clipPath id="a43fce18bf"><path d="M 12.308594 0.125 L 231.097656 0.125 C 234.363281 0.125 237.492188 1.421875 239.800781 3.730469 C 242.109375 6.039062 243.40625 9.167969 243.40625 12.433594 L 243.40625 229.886719 C 243.40625 233.152344 242.109375 236.28125 239.800781 238.589844 C 237.492188 240.898438 234.363281 242.195312 231.097656 242.195312 L 12.308594 242.195312 C 9.042969 242.195312 5.914062 240.898438 3.605469 238.589844 C 1.296875 236.28125 0 233.152344 0 229.886719 L 0 12.433594 C 0 9.167969 1.296875 6.039062 3.605469 3.730469 C 5.914062 1.421875 9.042969 0.125 12.308594 0.125 Z M 12.308594 0.125 " clip-rule="nonzero"/></clipPath><clipPath id="d62127ac24"><path d="M 115 195 L 139 195 L 139 218.257812 L 115 218.257812 Z M 115 195 " clip-rule="nonzero"/></clipPath><clipPath id="b17c96b99b"><path d="M 34.3125 103.101562 L 83 103.101562 L 83 148 L 34.3125 148 Z M 34.3125 103.101562 " clip-rule="nonzero"/></clipPath><clipPath id="2cf4a9c29b"><path d="M 120 12 L 243.5 12 L 243.5 115 L 120 115 Z M 120 12 " clip-rule="nonzero"/></clipPath></defs><g clip-path="url(#f4888f0e13)"><g clip-path="url(#a43fce18bf)"><path fill="#191717" d="M 0 0.125 L 243.015625 0.125 L 243.015625 242.195312 L 0 242.195312 Z M 0 0.125 " fill-opacity="1" fill-rule="nonzero"/></g></g><path fill="#d9d9d9" d="M 172.5625 104.300781 L 160.464844 116.398438 L 162.578125 118.515625 C 162.582031 118.515625 162.582031 118.515625 162.582031 118.515625 L 190.035156 145.96875 C 191.820312 147.753906 194.195312 148.734375 196.707031 148.734375 C 199.230469 148.734375 201.601562 147.753906 203.382812 145.96875 L 208.808594 140.542969 Z M 172.5625 104.300781 " fill-opacity="1" fill-rule="nonzero"/><path fill="#d9d9d9" d="M 166.160156 174.253906 L 163.953125 172.046875 L 161.742188 169.839844 L 156.3125 164.410156 C 155.4375 163.53125 154.269531 163.050781 153.03125 163.050781 C 151.796875 163.050781 150.628906 163.53125 149.757812 164.410156 C 147.949219 166.210938 147.949219 169.152344 149.757812 170.960938 L 155.1875 176.394531 L 157.398438 178.601562 L 159.605469 180.8125 L 163.003906 184.203125 C 163.878906 185.082031 165.042969 185.5625 166.28125 185.5625 C 167.519531 185.5625 168.679688 185.082031 169.558594 184.203125 C 171.367188 182.402344 171.367188 179.460938 169.558594 177.65625 Z M 166.160156 174.253906 " fill-opacity="1" fill-rule="nonzero"/><path fill="#d9d9d9" d="M 155.191406 185.226562 L 152.988281 183.015625 L 145.347656 175.375 C 144.472656 174.5 143.308594 174.019531 142.066406 174.019531 C 140.828125 174.019531 139.667969 174.5 138.792969 175.375 C 136.984375 177.179688 136.984375 180.121094 138.792969 181.925781 L 144.226562 187.359375 L 146.433594 189.570312 L 148.640625 191.777344 L 152.042969 195.171875 C 152.914062 196.046875 154.082031 196.527344 155.316406 196.527344 C 156.554688 196.527344 157.722656 196.050781 158.59375 195.171875 C 160.402344 193.367188 160.398438 190.425781 158.59375 188.621094 Z M 155.191406 185.226562 " fill-opacity="1" fill-rule="nonzero"/><path fill="#d9d9d9" d="M 147.625 199.585938 L 142.019531 193.980469 L 139.808594 191.773438 L 134.375 186.339844 C 133.503906 185.46875 132.339844 184.980469 131.101562 184.980469 C 129.859375 184.980469 128.699219 185.464844 127.824219 186.339844 C 126.949219 187.214844 126.46875 188.378906 126.46875 189.617188 C 126.46875 190.847656 126.945312 192.011719 127.820312 192.890625 C 127.820312 192.890625 127.820312 192.890625 127.824219 192.890625 L 137.671875 202.738281 L 141.070312 206.140625 C 141.945312 207.019531 143.109375 207.5 144.347656 207.5 C 145.585938 207.5 146.75 207.019531 147.625 206.140625 C 148.5 205.265625 148.984375 204.101562 148.984375 202.863281 C 148.984375 201.625 148.5 200.464844 147.625 199.589844 C 147.628906 199.589844 147.628906 199.589844 147.625 199.585938 Z M 147.625 199.585938 " fill-opacity="1" fill-rule="nonzero"/><g clip-path="url(#d62127ac24)"><path fill="#d9d9d9" d="M 133.257812 207.15625 L 131.054688 204.945312 L 128.847656 202.742188 L 123.414062 197.304688 C 122.535156 196.433594 121.371094 195.945312 120.136719 195.945312 C 118.898438 195.945312 117.738281 196.429688 116.863281 197.304688 C 115.054688 199.109375 115.054688 202.054688 116.863281 203.863281 L 122.292969 209.292969 L 124.5 211.503906 L 126.707031 213.710938 L 130.109375 217.105469 C 130.980469 217.980469 132.144531 218.460938 133.382812 218.460938 C 134.625 218.460938 135.789062 217.984375 136.660156 217.105469 C 138.464844 215.300781 138.464844 212.359375 136.660156 210.554688 Z M 133.257812 207.15625 " fill-opacity="1" fill-rule="nonzero"/></g><path fill="#d9d9d9" d="M 151.222656 128.1875 C 147.285156 128.1875 143.589844 126.65625 140.8125 123.875 C 139.207031 122.273438 137.074219 121.390625 134.808594 121.390625 C 132.539062 121.390625 130.414062 122.273438 128.808594 123.875 L 126.707031 125.980469 L 149.664062 148.933594 C 150.25 149.519531 150.582031 150.320312 150.578125 151.152344 C 150.578125 151.984375 150.242188 152.773438 149.652344 153.363281 L 142.808594 160.117188 C 140.023438 162.855469 136.347656 164.371094 132.441406 164.371094 C 128.5 164.371094 124.796875 162.835938 122.011719 160.050781 L 112.339844 150.382812 C 110.980469 149.023438 109.179688 148.277344 107.261719 148.277344 C 105.746094 148.277344 104.273438 148.773438 103.054688 149.644531 L 80.65625 172.039062 L 80.652344 172.042969 L 76.234375 176.464844 C 74.425781 178.265625 74.425781 181.207031 76.234375 183.015625 C 77.109375 183.886719 78.269531 184.371094 79.511719 184.371094 C 80.75 184.371094 81.910156 183.890625 82.789062 183.015625 C 84.007812 181.792969 85.980469 181.792969 87.199219 183.015625 C 87.8125 183.625 88.117188 184.417969 88.117188 185.21875 C 88.117188 186.019531 87.8125 186.820312 87.199219 187.425781 C 85.394531 189.234375 85.394531 192.175781 87.199219 193.980469 C 88.078125 194.851562 89.238281 195.339844 90.476562 195.339844 C 91.714844 195.339844 92.878906 194.859375 93.753906 193.980469 C 94.972656 192.761719 96.949219 192.761719 98.167969 193.980469 C 98.777344 194.589844 99.082031 195.390625 99.082031 196.191406 C 99.082031 196.992188 98.777344 197.785156 98.167969 198.398438 C 97.289062 199.269531 96.808594 200.4375 96.808594 201.679688 C 96.808594 202.914062 97.289062 204.078125 98.167969 204.953125 C 99.042969 205.824219 100.207031 206.308594 101.445312 206.308594 C 102.679688 206.308594 103.84375 205.824219 104.71875 204.953125 C 105.941406 203.734375 107.917969 203.734375 109.136719 204.953125 C 109.746094 205.5625 110.050781 206.359375 110.050781 207.15625 C 110.050781 207.960938 109.746094 208.757812 109.136719 209.367188 C 107.328125 211.175781 107.328125 214.113281 109.136719 215.921875 C 110.011719 216.796875 111.171875 217.277344 112.410156 217.277344 C 113.652344 217.277344 114.8125 216.796875 115.691406 215.921875 L 117.890625 213.71875 L 112.457031 208.285156 C 108.210938 204.042969 108.210938 197.144531 112.457031 192.902344 C 114.507812 190.851562 117.238281 189.71875 120.144531 189.71875 C 120.175781 189.71875 120.203125 189.722656 120.238281 189.722656 C 120.238281 189.683594 120.234375 189.664062 120.234375 189.625 C 120.234375 186.71875 121.363281 183.984375 123.417969 181.933594 C 125.472656 179.886719 128.207031 178.75 131.109375 178.75 C 131.144531 178.75 131.175781 178.753906 131.210938 178.753906 C 131.1875 175.933594 132.242188 173.109375 134.386719 170.96875 C 136.441406 168.910156 139.167969 167.785156 142.074219 167.785156 C 142.109375 167.785156 142.140625 167.789062 142.179688 167.789062 C 142.148438 164.972656 143.207031 162.144531 145.351562 160.003906 C 147.410156 157.945312 150.140625 156.816406 153.042969 156.816406 C 155.949219 156.816406 158.675781 157.945312 160.730469 160.003906 L 166.160156 165.433594 L 183.410156 148.183594 L 160.296875 125.0625 C 157.714844 127.089844 154.550781 128.1875 151.222656 128.1875 Z M 151.222656 128.1875 " fill-opacity="1" fill-rule="nonzero"/><path fill="#d9d9d9" d="M 97.722656 145.996094 C 98.097656 145.617188 98.5 145.269531 98.917969 144.945312 C 101 143.300781 103.546875 142.296875 106.195312 142.085938 C 106.539062 142.058594 106.882812 142.03125 107.230469 142.03125 C 108.277344 142.03125 109.300781 142.160156 110.296875 142.394531 C 112.726562 142.953125 114.945312 144.167969 116.746094 145.964844 L 126.417969 155.632812 C 128.023438 157.242188 130.160156 158.128906 132.433594 158.128906 C 134.683594 158.128906 136.808594 157.257812 138.410156 155.675781 L 143.019531 151.121094 L 122.292969 130.394531 L 120.082031 128.1875 L 117.875 125.980469 L 114.574219 122.675781 C 112.972656 121.074219 110.839844 120.191406 108.578125 120.191406 C 106.308594 120.191406 104.179688 121.074219 102.578125 122.675781 C 99.796875 125.460938 96.097656 126.988281 92.164062 126.988281 C 88.832031 126.988281 85.667969 125.890625 83.089844 123.867188 L 59.980469 146.976562 L 78.421875 165.421875 Z M 97.722656 145.996094 " fill-opacity="1" fill-rule="nonzero"/><g clip-path="url(#b17c96b99b)"><path fill="#d9d9d9" d="M 80.8125 117.320312 L 82.929688 115.199219 L 70.832031 103.101562 L 34.582031 139.347656 L 40.007812 144.773438 C 41.789062 146.554688 44.160156 147.535156 46.679688 147.535156 C 49.199219 147.535156 51.574219 146.558594 53.351562 144.777344 L 80.804688 117.320312 C 80.808594 117.320312 80.8125 117.320312 80.8125 117.320312 Z M 80.8125 117.320312 " fill-opacity="1" fill-rule="nonzero"/></g><path stroke-linecap="butt" transform="matrix(1.668914, 0, 0, 1.668914, 23.434362, 18.520633)" fill="none" stroke-linejoin="miter" d="M 3.063378 20.516987 L 1.460071 20.516987 L 3.063378 13.31966 L 10.270067 13.31966 L 14.068851 19.522235 L 17.867635 13.31966 L 25.064962 13.31966 L 25.064962 40.000092 L 17.867635 40.000092 L 17.867635 25.039015 L 14.068851 31.162009 L 10.270067 25.039015 L 10.270067 40.000092 L 3.063378 40.000092 Z M 28.545425 27.080013 L 27.061488 27.080013 L 28.545425 20.516987 L 35.108451 20.516987 L 35.108451 33.603248 L 36.503445 33.603248 L 35.108451 40.000092 L 28.545425 40.000092 Z M 29.66891 12.519177 L 36.182783 12.519177 L 34.785449 19.042413 L 28.222423 19.042413 Z M 38.385282 19.199233 L 36.901346 19.199233 L 38.385282 12.675997 L 44.948308 12.675997 L 44.948308 33.603248 L 46.343302 33.603248 L 44.948308 40.000092 L 38.385282 40.000092 Z M 48.22514 27.080013 L 46.741203 27.080013 L 48.22514 20.516987 L 54.788166 20.516987 L 54.788166 33.603248 L 56.18316 33.603248 L 54.788166 40.000092 L 48.22514 40.000092 Z M 49.348625 12.519177 L 55.862498 12.519177 L 54.465164 19.042413 L 47.902138 19.042413 Z M 71.425108 39.805823 C 70.598878 40.014136 69.835845 40.161593 69.138348 40.252876 C 68.450213 40.351181 67.72931 40.400334 66.98032 40.400334 C 65.145294 40.400334 63.59348 40.089035 62.322538 39.461755 C 61.060958 38.832136 59.972581 37.837383 59.06209 36.48452 C 57.758379 34.537145 57.107694 32.362734 57.107694 29.961284 C 57.107694 28.573312 57.320688 27.281304 57.741995 26.08292 C 58.172665 24.879854 58.764835 23.83829 59.520847 22.958227 C 60.28154 22.080504 61.170966 21.387688 62.186783 20.879779 C 63.202601 20.37187 64.309702 20.116745 65.505746 20.116745 C 68.227857 20.116745 70.294601 21.345557 71.70832 23.7985 C 72.852871 25.855882 73.426316 28.203498 73.426316 30.839007 C 73.426316 30.89284 73.426316 31.019233 73.426316 31.220524 C 73.426316 31.421815 73.414613 31.627787 73.386526 31.8361 L 63.82754 31.8361 C 64.197354 32.851918 64.702922 33.575161 65.339564 34.00349 C 65.985568 34.427138 66.905421 34.637791 68.103805 34.637791 C 68.801302 34.637791 69.576039 34.567573 70.428015 34.424797 C 71.282332 34.274999 72.052387 34.066686 72.742863 33.799858 Z M 67.186292 27.960076 C 67.050538 27.02852 66.842225 26.356769 66.561354 25.947165 C 66.280482 25.53054 65.891944 25.322227 65.388716 25.322227 C 64.906554 25.322227 64.49695 25.563308 64.159904 26.04547 C 63.82754 26.520611 63.635611 27.157252 63.581777 27.960076 Z M 67.186292 27.960076 " stroke="#000000" stroke-width="1.000008" stroke-opacity="1" stroke-miterlimit="4"/><g fill="#ff5757" fill-opacity="1"><g transform="translate(25.546581, 85.27719)"><g><path d="M 3 -32.5 L 0.328125 -32.5 L 3 -44.515625 L 15.015625 -44.515625 L 21.359375 -34.171875 L 27.703125 -44.515625 L 39.71875 -44.515625 L 39.71875 0 L 27.703125 0 L 27.703125 -24.96875 L 21.359375 -14.75 L 15.015625 -24.96875 L 15.015625 0 L 3 0 Z M 3 -32.5 "/></g></g></g><g fill="#ff5757" fill-opacity="1"><g transform="translate(68.270737, 85.27719)"><g><path d="M 2.796875 -21.5625 L 0.328125 -21.5625 L 2.796875 -32.5 L 13.75 -32.5 L 13.75 -10.6875 L 16.09375 -10.6875 L 13.75 0 L 2.796875 0 Z M 4.671875 -45.859375 L 15.546875 -45.859375 L 13.21875 -34.984375 L 2.265625 -34.984375 Z M 4.671875 -45.859375 "/></g></g></g><g fill="#ff5757" fill-opacity="1"><g transform="translate(84.692844, 85.27719)"><g><path d="M 2.796875 -34.703125 L 0.328125 -34.703125 L 2.796875 -45.59375 L 13.75 -45.59375 L 13.75 -10.6875 L 16.09375 -10.6875 L 13.75 0 L 2.796875 0 Z M 2.796875 -34.703125 "/></g></g></g><g fill="#ff5757" fill-opacity="1"><g transform="translate(101.114951, 85.27719)"><g><path d="M 2.796875 -21.5625 L 0.328125 -21.5625 L 2.796875 -32.5 L 13.75 -32.5 L 13.75 -10.6875 L 16.09375 -10.6875 L 13.75 0 L 2.796875 0 Z M 4.671875 -45.859375 L 15.546875 -45.859375 L 13.21875 -34.984375 L 2.265625 -34.984375 Z M 4.671875 -45.859375 "/></g></g></g><g fill="#ff5757" fill-opacity="1"><g transform="translate(117.537057, 85.27719)"><g><path d="M 25.09375 -0.328125 C 23.71875 0.0234375 22.453125 0.28125 21.296875 0.4375 C 20.140625 0.59375 18.9375 0.671875 17.6875 0.671875 C 14.613281 0.671875 12.019531 0.148438 9.90625 -0.890625 C 7.789062 -1.941406 5.976562 -3.601562 4.46875 -5.875 C 2.289062 -9.125 1.203125 -12.75 1.203125 -16.75 C 1.203125 -19.0625 1.554688 -21.21875 2.265625 -23.21875 C 2.984375 -25.226562 3.972656 -26.96875 5.234375 -28.4375 C 6.503906 -29.90625 7.984375 -31.0625 9.671875 -31.90625 C 11.367188 -32.75 13.21875 -33.171875 15.21875 -33.171875 C 19.757812 -33.171875 23.207031 -31.125 25.5625 -27.03125 C 27.476562 -23.601562 28.4375 -19.6875 28.4375 -15.28125 C 28.4375 -15.195312 28.4375 -14.988281 28.4375 -14.65625 C 28.4375 -14.320312 28.414062 -13.972656 28.375 -13.609375 L 12.421875 -13.609375 C 13.035156 -11.921875 13.875 -10.71875 14.9375 -10 C 16.007812 -9.289062 17.550781 -8.9375 19.5625 -8.9375 C 20.71875 -8.9375 22.003906 -9.054688 23.421875 -9.296875 C 24.847656 -9.546875 26.140625 -9.894531 27.296875 -10.34375 Z M 18.015625 -20.09375 C 17.796875 -21.644531 17.453125 -22.765625 16.984375 -23.453125 C 16.515625 -24.148438 15.859375 -24.5 15.015625 -24.5 C 14.210938 -24.5 13.535156 -24.097656 12.984375 -23.296875 C 12.429688 -22.492188 12.109375 -21.425781 12.015625 -20.09375 Z M 18.015625 -20.09375 "/></g></g></g><g clip-path="url(#2cf4a9c29b)"><path stroke-linecap="butt" transform="matrix(1.668914, 0, 0, 1.668914, 149.121394, 18.520633)" fill="none" stroke-linejoin="miter" d="M 1.680366 20.516987 L 0.0770595 20.516987 L 1.680366 13.31966 L 8.877693 13.31966 L 8.877693 27.637074 C 8.877693 28.945466 8.896418 29.942559 8.936208 30.626013 C 8.980679 31.302444 9.055578 31.786947 9.160905 32.079522 C 9.289638 32.451676 9.49561 32.751272 9.776481 32.97831 C 10.055012 33.205347 10.385036 33.320037 10.761871 33.320037 C 11.131685 33.320037 11.459368 33.200666 11.737899 32.959585 C 12.01877 32.718504 12.21304 32.400183 12.325388 32.002282 C 12.402628 31.735454 12.454121 31.295423 12.479867 30.684528 C 12.505614 30.06427 12.519657 29.048452 12.519657 27.637074 L 12.519657 13.31966 L 19.716984 13.31966 L 19.716984 28.680979 C 19.716984 29.586789 19.709962 30.361526 19.698259 31.005189 C 19.684216 31.644171 19.658469 32.196551 19.618679 32.667011 C 19.58123 33.128108 19.525055 33.535371 19.452497 33.88646 C 19.38696 34.232868 19.302699 34.562892 19.199713 34.883553 C 18.640311 36.667086 17.617471 38.033993 16.133535 38.984274 C 14.654279 39.927534 12.809891 40.400334 10.595689 40.400334 C 8.915143 40.400334 7.414822 40.074991 6.094727 39.424306 C 4.779313 38.766599 3.733067 37.837383 2.958331 36.641339 C 2.71725 36.236417 2.515958 35.81745 2.354457 35.379759 C 2.197638 34.937387 2.064224 34.417775 1.954216 33.818583 C 1.848889 33.219391 1.776331 32.512532 1.738881 31.700345 C 1.699091 30.885819 1.680366 29.930856 1.680366 28.837799 Z M 27.476053 26.036108 L 21.636271 13.31966 L 29.603653 13.31966 L 31.918501 19.599474 L 34.242711 13.31966 L 42.200731 13.31966 L 36.400739 26.036108 L 42.837372 40.000092 L 34.603162 40.000092 L 31.918501 32.559343 L 29.243202 40.000092 L 20.99963 40.000092 Z M 27.476053 26.036108 " stroke="#bf5858" stroke-width="3.000022" stroke-opacity="1" stroke-miterlimit="4"/></g><g fill="#ede8e8" fill-opacity="1"><g transform="translate(149.121394, 85.27719)"><g><path d="M 2.796875 -32.5 L 0.140625 -32.5 L 2.796875 -44.515625 L 14.8125 -44.515625 L 14.8125 -20.625 C 14.8125 -18.445312 14.84375 -16.789062 14.90625 -15.65625 C 14.976562 -14.519531 15.101562 -13.707031 15.28125 -13.21875 C 15.507812 -12.59375 15.851562 -12.085938 16.3125 -11.703125 C 16.78125 -11.328125 17.328125 -11.140625 17.953125 -11.140625 C 18.578125 -11.140625 19.125 -11.335938 19.59375 -11.734375 C 20.0625 -12.140625 20.382812 -12.675781 20.5625 -13.34375 C 20.695312 -13.789062 20.785156 -14.523438 20.828125 -15.546875 C 20.867188 -16.578125 20.890625 -18.269531 20.890625 -20.625 L 20.890625 -44.515625 L 32.90625 -44.515625 L 32.90625 -18.890625 C 32.90625 -17.378906 32.894531 -16.085938 32.875 -15.015625 C 32.851562 -13.953125 32.804688 -13.03125 32.734375 -12.25 C 32.671875 -11.46875 32.582031 -10.785156 32.46875 -10.203125 C 32.363281 -9.628906 32.222656 -9.078125 32.046875 -8.546875 C 31.109375 -5.566406 29.40625 -3.285156 26.9375 -1.703125 C 24.46875 -0.117188 21.382812 0.671875 17.6875 0.671875 C 14.882812 0.671875 12.378906 0.125 10.171875 -0.96875 C 7.972656 -2.0625 6.226562 -3.609375 4.9375 -5.609375 C 4.539062 -6.273438 4.207031 -6.972656 3.9375 -7.703125 C 3.664062 -8.441406 3.441406 -9.3125 3.265625 -10.3125 C 3.085938 -11.3125 2.960938 -12.488281 2.890625 -13.84375 C 2.828125 -15.207031 2.796875 -16.800781 2.796875 -18.625 Z M 2.796875 -32.5 "/></g></g></g><g fill="#ede8e8" fill-opacity="1"><g transform="translate(184.902887, 85.27719)"><g><path d="M 10.078125 -23.296875 L 0.328125 -44.515625 L 13.609375 -44.515625 L 17.484375 -34.046875 L 21.359375 -44.515625 L 34.640625 -44.515625 L 24.96875 -23.296875 L 35.71875 0 L 21.953125 0 L 17.484375 -12.421875 L 13.015625 0 L -0.734375 0 Z M 10.078125 -23.296875 "/></g></g></g></svg>